<svg width="40" height="40" viewBox="0 0 40 40" fill="none" xmlns="http://www.w3.org/2000/svg">
<rect width="40" height="40" rx="8" fill="#E4F8F9"/>
<g clip-path="url(#clip0_2020_1685)">
<path d="M25.2477 28.25C24.2877 28.25 23.4397 27.635 23.1267 26.75H15.3687C15.0547 27.635 14.2067 28.25 13.2477 28.25C12.2887 28.25 11.4397 27.635 11.1267 26.75H9.66473C9.64573 26.75 9.62673 26.749 9.60773 26.748C8.66173 26.68 7.93973 25.852 7.99973 24.903L7.99873 18.65C7.86973 16.658 9.41573 14.898 11.4437 14.752C11.4627 14.751 11.4797 14.75 11.4977 14.75H16.2477V14C16.2477 12.759 17.2567 11.75 18.4977 11.75H29.7477C30.9887 11.75 31.9977 12.759 31.9977 14V24.5C31.9977 25.741 30.9887 26.75 29.7477 26.75H27.3687C27.0557 27.635 26.2077 28.25 25.2477 28.25ZM25.2477 25.25C24.8337 25.25 24.4977 25.586 24.4977 26C24.4977 26.414 24.8337 26.75 25.2477 26.75C25.6617 26.75 25.9977 26.414 25.9977 26C25.9977 25.586 25.6607 25.25 25.2477 25.25ZM13.2477 25.25C12.8337 25.25 12.4977 25.586 12.4977 26C12.4977 26.414 12.8337 26.75 13.2477 26.75C13.6617 26.75 13.9977 26.414 13.9977 26C13.9977 25.586 13.6617 25.25 13.2477 25.25ZM29.7477 25.25C30.1617 25.25 30.4977 24.914 30.4977 24.5V22.25H17.7477V25.25H23.1267C23.4407 24.365 24.2887 23.75 25.2477 23.75C26.2067 23.75 27.0557 24.365 27.3687 25.25H29.7477ZM16.2477 25.25V16.25H14.7477V19.152C14.7337 20.036 14.0107 20.75 13.1357 20.75H9.49773V22.25H10.7047C11.1187 22.25 11.4547 22.586 11.4547 23C11.4547 23.414 11.1187 23.75 10.7047 23.75H9.49773V24.95C9.48873 25.114 9.57573 25.231 9.70073 25.25H11.1267C11.4407 24.365 12.2887 23.75 13.2477 23.75C14.2067 23.75 15.0557 24.365 15.3687 25.25H16.2477ZM30.4977 20.75V14C30.4977 13.586 30.1617 13.25 29.7477 13.25H18.4977C18.0837 13.25 17.7477 13.586 17.7477 14V20.75H30.4977ZM13.1227 19.25C13.1967 19.25 13.2467 19.203 13.2477 19.14V16.25H11.5267C10.3297 16.35 9.42073 17.402 9.49673 18.603V19.25H13.1227Z" fill="#2F80ED"/>
</g>
<defs>
<clipPath id="clip0_2020_1685">
<rect width="24" height="24" fill="white" transform="translate(8 8)"/>
</clipPath>
</defs>
</svg>
