<svg width="48" height="48" viewBox="0 0 48 48" fill="none" xmlns="http://www.w3.org/2000/svg">
<rect width="48" height="48" rx="8" fill="#E4F8F9"/>
<g clip-path="url(#clip0_2540_6908)">
<path d="M20.2552 36C19.9772 36 19.7242 35.848 19.5932 35.603C19.1532 34.778 18.4182 34.174 17.5242 33.902C17.1892 33.8 16.8452 33.748 16.5002 33.748C15.9332 33.748 15.3652 33.891 14.8582 34.162C14.2432 34.49 13.7452 34.988 13.4172 35.603C13.2862 35.848 13.0322 36 12.7542 36C12.6322 36 12.5102 35.969 12.4012 35.912C12.0362 35.717 11.8972 35.262 12.0922 34.897C12.5612 34.018 13.2732 33.306 14.1512 32.838C14.3652 32.724 14.5872 32.625 14.8152 32.544C13.8082 31.958 13.1292 30.867 13.1292 29.625C13.1292 27.764 14.6432 26.25 16.5042 26.25C18.3652 26.25 19.8792 27.764 19.8792 29.625C19.8792 30.867 19.1992 31.958 18.1932 32.544C19.3652 32.963 20.3262 33.791 20.9162 34.897C21.1102 35.262 20.9722 35.717 20.6072 35.912C20.4992 35.969 20.3782 36 20.2552 36ZM16.5052 27.75C15.4712 27.75 14.6302 28.591 14.6302 29.625C14.6302 30.659 15.4712 31.5 16.5052 31.5C17.5392 31.5 18.3802 30.659 18.3802 29.625C18.3802 28.591 17.5392 27.75 16.5052 27.75Z" fill="#2F80ED"/>
<path d="M35.2547 36C34.9767 36 34.7227 35.848 34.5927 35.603C34.1527 34.779 33.4177 34.174 32.5237 33.902C32.1897 33.8 31.8457 33.749 31.5007 33.749C30.9337 33.749 30.3657 33.892 29.8577 34.163C29.2427 34.491 28.7447 34.989 28.4167 35.604C28.2857 35.848 28.0317 36 27.7537 36C27.6317 36 27.5097 35.969 27.4007 35.912C27.0357 35.717 26.8977 35.262 27.0917 34.897C27.5607 34.018 28.2717 33.306 29.1507 32.838C29.3647 32.723 29.5877 32.625 29.8157 32.543C28.8087 31.957 28.1287 30.866 28.1287 29.624C28.1287 27.763 29.6427 26.249 31.5037 26.249C33.3647 26.249 34.8787 27.763 34.8787 29.624C34.8787 30.866 34.1997 31.957 33.1927 32.543C34.3647 32.962 35.3257 33.79 35.9157 34.896C36.0097 35.073 36.0297 35.276 35.9717 35.468C35.9137 35.659 35.7837 35.817 35.6067 35.911C35.4997 35.969 35.3777 36 35.2547 36ZM31.5047 27.75C30.4707 27.75 29.6297 28.591 29.6297 29.625C29.6297 30.659 30.4707 31.5 31.5047 31.5C32.5387 31.5 33.3797 30.659 33.3797 29.625C33.3797 28.591 32.5387 27.75 31.5047 27.75Z" fill="#2F80ED"/>
<path d="M24.0059 18.75C22.1449 18.75 20.6309 17.236 20.6309 15.375C20.6309 13.514 22.1449 12 24.0059 12C25.8669 12 27.3809 13.514 27.3809 15.375C27.3809 17.236 25.8669 18.75 24.0059 18.75ZM24.0059 13.5C22.9719 13.5 22.1309 14.341 22.1309 15.375C22.1309 16.409 22.9719 17.25 24.0059 17.25C25.0399 17.25 25.8809 16.409 25.8809 15.375C25.8809 14.341 25.0399 13.5 24.0059 13.5Z" fill="#2F80ED"/>
<path d="M27.2543 21C27.0343 21 26.8263 20.904 26.6833 20.736C26.0143 19.951 25.0364 19.5 24.0014 19.5C23.1664 19.5 22.3573 19.798 21.7223 20.338C21.5803 20.46 21.4463 20.594 21.3253 20.736C21.1823 20.904 20.9743 21 20.7543 21C20.5763 21 20.4033 20.936 20.2673 20.821C20.1153 20.691 20.0223 20.51 20.0063 20.31C19.9903 20.11 20.0533 19.916 20.1833 19.764C20.3563 19.56 20.5473 19.37 20.7503 19.197C21.6553 18.426 22.8103 18.001 24.0003 18.001C25.4763 18.001 26.8703 18.643 27.8243 19.763C28.0924 20.078 28.0543 20.552 27.7403 20.82C27.6053 20.936 27.4323 21 27.2543 21Z" fill="#2F80ED"/>
<path d="M24.0056 33.0015C22.9046 33.0015 21.8226 32.8025 20.7896 32.4085C20.4036 32.2615 20.2086 31.8275 20.3556 31.4405C20.4656 31.1515 20.7476 30.9575 21.0556 30.9575C21.1476 30.9575 21.2376 30.9745 21.3236 31.0075C22.1836 31.3355 23.0866 31.5015 24.0046 31.5015C24.9386 31.5015 25.8556 31.3295 26.7296 30.9905C26.8166 30.9565 26.9076 30.9395 27.0006 30.9395C27.3076 30.9395 27.5886 31.1315 27.6996 31.4185C27.7726 31.6055 27.7676 31.8095 27.6866 31.9925C27.6056 32.1755 27.4586 32.3165 27.2716 32.3895C26.2246 32.7955 25.1256 33.0015 24.0056 33.0015Z" fill="#2F80ED"/>
<path d="M15.7909 25.5C15.4009 25.5 15.0799 25.207 15.0449 24.818C15.0169 24.513 15.0039 24.253 15.0039 24C15.0029 21.528 16.0369 19.142 17.8409 17.453C17.9809 17.322 18.1629 17.25 18.3539 17.25C18.5609 17.25 18.7599 17.336 18.9009 17.487C19.0379 17.634 19.1099 17.824 19.1029 18.025C19.0959 18.225 19.0119 18.411 18.8659 18.548C17.3639 19.954 16.5029 21.942 16.5039 24C16.5039 24.206 16.5149 24.423 16.5389 24.682C16.5769 25.093 16.2729 25.459 15.8609 25.497C15.8349 25.499 15.8129 25.5 15.7909 25.5Z" fill="#2F80ED"/>
<path d="M32.2168 25.5C32.1928 25.5 32.1678 25.499 32.1438 25.496C31.7358 25.458 31.4318 25.091 31.4698 24.68C31.4928 24.429 31.5048 24.206 31.5048 24C31.5058 21.942 30.6448 19.954 29.1418 18.547C28.9958 18.41 28.9118 18.224 28.9048 18.024C28.8978 17.824 28.9698 17.633 29.1068 17.487C29.2478 17.336 29.4478 17.25 29.6538 17.25C29.8448 17.25 30.0278 17.322 30.1668 17.453C31.9708 19.142 33.0048 21.529 33.0038 24C33.0038 24.255 32.9898 24.523 32.9618 24.82C32.9268 25.208 32.6068 25.5 32.2168 25.5Z" fill="#2F80ED"/>
<path d="M24.0059 30C23.5919 30 23.2559 29.664 23.2559 29.25V28.402C22.9859 28.332 22.7259 28.224 22.4849 28.082L21.8839 28.682C21.7419 28.823 21.5539 28.901 21.3539 28.901C21.1529 28.901 20.9649 28.823 20.8229 28.681C20.5309 28.389 20.5309 27.913 20.8239 27.621L21.4239 27.021C21.2819 26.781 21.1739 26.521 21.1039 26.25H20.2559C19.8419 26.25 19.5059 25.914 19.5059 25.5C19.5059 25.086 19.8419 24.75 20.2559 24.75H21.1049C21.1749 24.48 21.2829 24.22 21.4249 23.979L20.8239 23.378C20.6819 23.237 20.6039 23.048 20.6039 22.848C20.6039 22.648 20.6819 22.459 20.8239 22.318C20.9649 22.176 21.1539 22.098 21.3539 22.098C21.5539 22.098 21.7429 22.176 21.8839 22.318L22.4849 22.919C22.7259 22.777 22.9859 22.669 23.2559 22.599V21.75C23.2559 21.336 23.5919 21 24.0059 21C24.4199 21 24.7559 21.336 24.7559 21.75V22.599C25.0259 22.669 25.2859 22.777 25.5269 22.919L26.1279 22.318C26.2699 22.176 26.4579 22.098 26.6579 22.098C26.8579 22.098 27.0469 22.176 27.1879 22.318C27.3299 22.459 27.4079 22.648 27.4079 22.848C27.4079 23.048 27.3299 23.237 27.1879 23.378L26.5869 23.979C26.7289 24.22 26.8369 24.48 26.9069 24.75H27.7549C28.1689 24.75 28.5049 25.086 28.5049 25.5C28.5049 25.914 28.1689 26.25 27.7549 26.25H26.9069C26.8369 26.52 26.7289 26.78 26.5869 27.021L27.1869 27.62C27.4799 27.912 27.4799 28.388 27.1879 28.681C27.0469 28.823 26.8579 28.901 26.6569 28.901C26.4569 28.901 26.2689 28.823 26.1269 28.682L25.5259 28.082C25.2849 28.224 25.0249 28.332 24.7549 28.402V29.25C24.7559 29.664 24.4189 30 24.0059 30ZM24.0059 24C23.1789 24 22.5059 24.673 22.5059 25.5C22.5059 26.327 23.1789 27 24.0059 27C24.8329 27 25.5059 26.327 25.5059 25.5C25.5059 24.673 24.8329 24 24.0059 24Z" fill="#2F80ED"/>
</g>
<defs>
<clipPath id="clip0_2540_6908">
<rect width="24" height="24" fill="white" transform="translate(12 12)"/>
</clipPath>
</defs>
</svg>
