<svg width="24" height="24" viewBox="0 0 24 24" fill="none" xmlns="http://www.w3.org/2000/svg">
<path d="M22.0002 7.99973C22.0002 7.44973 21.5502 6.99973 21.0002 6.99973H14.0002C13.4502 6.99973 13.0002 7.44973 13.0002 7.99973C13.0002 8.54973 13.4502 8.99973 14.0002 8.99973H21.0002C21.5502 8.99973 22.0002 8.54973 22.0002 7.99973ZM13.0002 15.9997C13.0002 16.5497 13.4502 16.9997 14.0002 16.9997H21.0002C21.5502 16.9997 22.0002 16.5497 22.0002 15.9997C22.0002 15.4497 21.5502 14.9997 21.0002 14.9997H14.0002C13.4502 14.9997 13.0002 15.4497 13.0002 15.9997ZM10.4702 4.62973C10.8602 5.01973 10.8602 5.64973 10.4702 6.03973L6.24022 10.2897C5.85022 10.6797 5.22022 10.6797 4.82022 10.2897L2.70022 8.15973C2.51325 7.97275 2.4082 7.71915 2.4082 7.45473C2.4082 7.3238 2.43399 7.19415 2.4841 7.07318C2.5342 6.95222 2.60764 6.84231 2.70022 6.74973C2.79281 6.65714 2.90272 6.5837 3.02368 6.5336C3.14464 6.48349 3.27429 6.45771 3.40522 6.45771C3.66965 6.45771 3.92325 6.56275 4.11022 6.74973L5.53022 8.16973L9.07022 4.62973C9.45022 4.24973 10.0902 4.24973 10.4702 4.62973ZM10.4802 12.6397C10.8702 13.0297 10.8702 13.6597 10.4802 14.0497L6.25022 18.2997C5.86022 18.6897 5.23022 18.6897 4.83022 18.2997L2.70022 16.1597C2.60764 16.0671 2.5342 15.9572 2.4841 15.8363C2.43399 15.7153 2.4082 15.5857 2.4082 15.4547C2.4082 15.3238 2.43399 15.1941 2.4841 15.0732C2.5342 14.9522 2.60764 14.8423 2.70022 14.7497C2.79281 14.6571 2.90272 14.5837 3.02368 14.5336C3.14464 14.4835 3.27429 14.4577 3.40522 14.4577C3.53615 14.4577 3.6658 14.4835 3.78677 14.5336C3.90773 14.5837 4.01764 14.6571 4.11022 14.7497L5.53022 16.1697L9.07022 12.6297C9.45022 12.2497 10.0902 12.2497 10.4802 12.6397V12.6397Z" fill="#758892"/>
</svg>

