<svg width="48" height="48" viewBox="0 0 48 48" fill="none" xmlns="http://www.w3.org/2000/svg">
<g clip-path="url(#clip0_2408_1436)">
<path d="M38.7 20.08C38.0282 16.6754 36.1952 13.6097 33.5141 11.4065C30.8331 9.20327 27.4702 7.99922 24 8C18.22 8 13.2 11.28 10.7 16.08C7.76047 16.3977 5.04201 17.7904 3.06698 19.9906C1.09194 22.1909 -0.000343404 25.0434 8.09855e-08 28C8.09855e-08 34.62 5.38 40 12 40H38C43.52 40 48 35.52 48 30C48 24.72 43.9 20.44 38.7 20.08ZM28 26V34H20V26H14L23.3 16.7C23.7 16.3 24.32 16.3 24.72 16.7L34 26H28Z" fill="#2F80ED"/>
</g>
<defs>
<clipPath id="clip0_2408_1436">
<rect width="48" height="48" fill="white"/>
</clipPath>
</defs>
</svg>
