<svg width="64" height="64" viewBox="0 0 64 64" fill="none" xmlns="http://www.w3.org/2000/svg">
<rect width="64" height="64" rx="8" fill="#E4F8F9"/>
<path d="M41.3333 19.9997H35.76C35.2 18.453 33.7333 17.333 32 17.333C30.2667 17.333 28.8 18.453 28.24 19.9997H22.6667C21.2 19.9997 20 21.1997 20 22.6663V41.333C20 42.7997 21.2 43.9997 22.6667 43.9997H41.3333C42.8 43.9997 44 42.7997 44 41.333V22.6663C44 21.1997 42.8 19.9997 41.3333 19.9997ZM32 19.9997C32.7333 19.9997 33.3333 20.5997 33.3333 21.333C33.3333 22.0663 32.7333 22.6663 32 22.6663C31.2667 22.6663 30.6667 22.0663 30.6667 21.333C30.6667 20.5997 31.2667 19.9997 32 19.9997ZM32 25.333C34.2133 25.333 36 27.1197 36 29.333C36 31.5463 34.2133 33.333 32 33.333C29.7867 33.333 28 31.5463 28 29.333C28 27.1197 29.7867 25.333 32 25.333ZM40 41.333H24V39.4663C24 36.7997 29.3333 35.333 32 35.333C34.6667 35.333 40 36.7997 40 39.4663V41.333Z" fill="#2F80ED"/>
</svg>
