<svg width="56" height="32" viewBox="0 0 56 32" fill="none" xmlns="http://www.w3.org/2000/svg">
<path d="M0 29.521L15.9843 3.45748C18.8245 -1.18076 25.7819 -1.13821 28.5781 3.50003L29.767 5.47873C30.9339 7.43616 33.8181 7.52126 35.1171 5.67022L35.9758 4.43619C36.9665 3.03196 39.0141 2.77664 40.3351 3.88301C41.436 4.79789 41.6782 6.32979 40.9516 7.52127L35.0511 16.9892C33.7961 18.9892 30.8018 18.9679 29.5908 16.9467L25.0113 9.24464C23.9105 7.3936 21.1363 7.37233 20.0134 9.22337L11.691 23.0317C9.26915 27.053 4.82172 29.521 0 29.521Z" fill="white"/>
<path d="M55.7037 2.47901L39.7194 28.5425C36.8792 33.1808 29.9218 33.1382 27.1257 28.5L25.9367 26.5213C24.7698 24.5638 21.8856 24.4787 20.5866 26.3298L19.728 27.5638C18.7372 28.9681 16.6896 29.2234 15.3686 28.117C14.2677 27.2021 14.0256 25.6702 14.7521 24.4787L20.6527 15.0108C21.9076 13.0108 24.9019 13.0321 26.1129 15.0533L30.6924 22.7554C31.7933 24.6064 34.5674 24.6277 35.6903 22.7766L44.0127 8.96829C46.4346 4.94706 50.882 2.47901 55.7037 2.47901Z" fill="white"/>
</svg>
