<svg width="40" height="40" viewBox="0 0 40 40" fill="none" xmlns="http://www.w3.org/2000/svg">
<rect width="40" height="40" rx="8" fill="#E4F8F9"/>
<path d="M26 30.125C25.04 30.125 24.192 29.51 23.879 28.625H15.371C15.057 29.51 14.209 30.125 13.25 30.125C12.291 30.125 11.442 29.51 11.129 28.625H10.25C9.009 28.625 8 27.616 8 26.375V24.353C8 23.4 8.775 22.625 9.728 22.625H21.5V13.731C21.501 12.975 21.126 12.274 20.498 11.855L19.586 11.25C19.419 11.14 19.305 10.97 19.265 10.774C19.225 10.578 19.264 10.378 19.375 10.211C19.514 10 19.748 9.875 20 9.875C20.148 9.875 20.291 9.918 20.414 10L21.328 10.606C22.347 11.285 22.965 12.408 22.998 13.625H26.749C29.644 13.625 31.999 15.98 31.999 18.875V26.375C31.999 27.616 30.99 28.625 29.749 28.625H28.12C27.808 29.51 26.96 30.125 26 30.125ZM26 27.125C25.586 27.125 25.25 27.461 25.25 27.875C25.25 28.289 25.586 28.625 26 28.625C26.414 28.625 26.75 28.289 26.75 27.875C26.75 27.461 26.414 27.125 26 27.125ZM13.25 27.125C12.836 27.125 12.5 27.461 12.5 27.875C12.5 28.289 12.836 28.625 13.25 28.625C13.664 28.625 14 28.288 14 27.875C14 27.462 13.664 27.125 13.25 27.125ZM29.75 27.125C30.164 27.125 30.5 26.789 30.5 26.375V25.625H29.293C28.879 25.625 28.543 25.289 28.543 24.875C28.543 24.461 28.879 24.125 29.293 24.125H30.5V21.125H26.214C25.295 21.125 24.527 20.374 24.501 19.45V15.125H23V27.125H23.879C24.193 26.24 25.041 25.625 26 25.625C26.959 25.625 27.808 26.24 28.121 27.125H29.75ZM21.5 27.125V24.125H9.728C9.602 24.125 9.5 24.227 9.5 24.353V26.375C9.5 26.789 9.836 27.125 10.25 27.125H11.129C11.443 26.24 12.291 25.625 13.25 25.625C14.209 25.625 15.058 26.24 15.371 27.125H21.5ZM26 19.429C26.003 19.53 26.106 19.625 26.224 19.625H30.5V18.875C30.5 16.807 28.818 15.125 26.75 15.125H26V19.429Z" fill="#2F80ED"/>
</svg>