<svg width="48" height="48" viewBox="0 0 48 48" fill="none" xmlns="http://www.w3.org/2000/svg">
<rect width="48" height="48" rx="8" fill="#E4F8F9"/>
<path d="M27.1008 31.3698L28.1008 33.1098C27.1408 33.5498 26.0908 33.8398 25.0008 33.9498V31.9298C25.7408 31.8398 26.4408 31.6498 27.1008 31.3698ZM16.0708 24.9998H14.0508C14.1608 26.0998 14.4508 27.1398 14.8908 28.0998L16.6308 27.0998C16.3508 26.4398 16.1608 25.7398 16.0708 24.9998ZM27.1008 16.6298L28.1008 14.8898C27.1408 14.4498 26.1008 14.1598 25.0008 14.0498V16.0698C25.7408 16.1598 26.4408 16.3498 27.1008 16.6298ZM31.9308 22.9998H33.9508C33.8408 21.8998 33.5508 20.8598 33.1108 19.8998L31.3708 20.8998C31.6508 21.5598 31.8408 22.2598 31.9308 22.9998ZM20.9008 31.3698L19.9008 33.1098C20.8608 33.5498 21.9108 33.8398 23.0008 33.9498V31.9298C22.2608 31.8398 21.5608 31.6498 20.9008 31.3698ZM23.0008 16.0698V14.0498C21.9008 14.1598 20.8608 14.4498 19.9008 14.8898L20.9008 16.6298C21.5608 16.3498 22.2608 16.1598 23.0008 16.0698ZM30.3608 19.1698L32.1008 18.1598C31.4708 17.2898 30.7008 16.5198 29.8308 15.8898L28.8208 17.6298C29.4108 18.0798 29.9208 18.5898 30.3608 19.1698ZM16.6308 20.8998L14.8908 19.8998C14.4508 20.8598 14.1608 21.8998 14.0508 22.9998H16.0708C16.1608 22.2598 16.3508 21.5598 16.6308 20.8998ZM31.9308 24.9998C31.8408 25.7398 31.6508 26.4398 31.3708 27.0998L33.1108 28.0998C33.5508 27.1398 33.8408 26.0898 33.9508 24.9998H31.9308ZM28.8308 30.3598L29.8408 32.0998C30.7108 31.4698 31.4808 30.6998 32.1108 29.8298L30.3708 28.8198C29.9208 29.4098 29.4108 29.9198 28.8308 30.3598ZM19.1708 17.6398L18.1708 15.8898C17.2908 16.5298 16.5308 17.2898 15.9008 18.1698L17.6408 19.1798C18.0755 18.5968 18.5906 18.0783 19.1708 17.6398ZM17.6408 28.8298L15.9008 29.8298C16.5308 30.6998 17.3008 31.4698 18.1708 32.0998L19.1808 30.3598C18.5978 29.9251 18.0793 29.41 17.6408 28.8298Z" fill="#2F80ED"/>
<path d="M29.2112 21.2102L29.3012 21.3002C29.6912 21.6902 29.6912 22.3202 29.3012 22.7102L23.7212 28.3002C23.6286 28.3929 23.5188 28.4665 23.3978 28.5166C23.2768 28.5668 23.1471 28.5927 23.0162 28.5927C22.8852 28.5927 22.7555 28.5668 22.6345 28.5166C22.5136 28.4665 22.4037 28.3929 22.3112 28.3002L19.2212 25.2102C19.1285 25.1177 19.0549 25.0078 19.0047 24.8868C18.9545 24.7659 18.9287 24.6362 18.9287 24.5052C18.9287 24.3742 18.9545 24.2446 19.0047 24.1236C19.0549 24.0026 19.1285 23.8927 19.2212 23.8002L19.3112 23.7102C19.4037 23.6175 19.5136 23.544 19.6345 23.4938C19.7555 23.4436 19.8852 23.4178 20.0162 23.4178C20.1471 23.4178 20.2768 23.4436 20.3978 23.4938C20.5188 23.544 20.6286 23.6175 20.7212 23.7102L23.0212 26.0102L27.8012 21.2202C28.1812 20.8202 28.8212 20.8202 29.2112 21.2102Z" fill="#2F80ED"/>
</svg>
