<svg width="48" height="48" viewBox="0 0 48 48" fill="none" xmlns="http://www.w3.org/2000/svg">
<rect width="48" height="48" rx="8" fill="#E4F8F9"/>
<g clip-path="url(#clip0_2540_7080)">
<path d="M24 16.876C24.6213 16.876 25.125 16.3723 25.125 15.751C25.125 15.1297 24.6213 14.626 24 14.626C23.3787 14.626 22.875 15.1297 22.875 15.751C22.875 16.3723 23.3787 16.876 24 16.876Z" fill="#2F80ED"/>
<path d="M17.25 19.501C16.836 19.501 16.5 19.165 16.5 18.751C16.5 18.337 16.836 18.001 17.25 18.001H18V15.901C17.995 14.998 18.528 14.178 19.358 13.814L23.111 12.186C23.392 12.064 23.691 12.001 24 12.001C24.309 12.001 24.609 12.063 24.891 12.186L28.64 13.813C29.472 14.177 30.005 14.999 30 15.905V18.001H30.75C31.164 18.001 31.5 18.337 31.5 18.751C31.5 19.165 31.164 19.501 30.75 19.501H17.25ZM28.5 18.001V15.901C28.502 15.59 28.321 15.311 28.04 15.188L24.293 13.562C24.2 13.521 24.102 13.501 24 13.501C23.899 13.501 23.8 13.521 23.708 13.561L19.958 15.188C19.678 15.311 19.498 15.589 19.5 15.896V18H28.5V18.001Z" fill="#2F80ED"/>
<path d="M33.6353 36.001C33.2633 36.001 32.9513 35.734 32.8943 35.366C32.5613 33.231 31.4823 31.299 29.8773 29.916L30.8263 32.764C30.9373 33.095 30.7993 33.465 30.5003 33.645L26.7503 35.895C26.6343 35.965 26.5013 36.002 26.3653 36.002C26.1033 36.002 25.8563 35.862 25.7223 35.638C25.6193 35.467 25.5893 35.265 25.6373 35.07C25.6863 34.875 25.8073 34.712 25.9793 34.609L29.2133 32.669L27.9433 28.858L24.6363 34.15C24.4983 34.371 24.2603 34.503 24.0003 34.503C23.7403 34.503 23.5023 34.371 23.3643 34.15L20.2063 29.098L19.0163 32.669L22.2503 34.609C22.4223 34.712 22.5433 34.876 22.5923 35.07C22.6413 35.264 22.6113 35.466 22.5083 35.638C22.3733 35.862 22.1273 36.002 21.8653 36.002C21.7293 36.002 21.5953 35.965 21.4793 35.895L17.7293 33.645C17.4303 33.466 17.2933 33.095 17.4043 32.765L18.4393 29.658C16.6583 31.053 15.4623 33.082 15.1063 35.367C15.0493 35.734 14.7373 36 14.3643 36C14.3273 36 14.2893 35.997 14.2513 35.992C13.8403 35.928 13.5603 35.544 13.6243 35.135C14.4263 29.987 18.7903 26.251 24.0003 26.251C29.2103 26.251 33.5743 29.988 34.3763 35.136C34.4393 35.544 34.1593 35.928 33.7503 35.992C33.7103 35.998 33.6723 36.001 33.6353 36.001ZM24.0003 32.336L26.6253 28.136C25.7773 27.88 24.8963 27.751 24.0003 27.751C23.1043 27.751 22.2233 27.88 21.3753 28.136L24.0003 32.336Z" fill="#2F80ED"/>
<path d="M24.0111 25.508C23.7191 25.508 23.4241 25.483 23.1321 25.435C20.9241 25.064 19.1931 23.333 18.8231 21.126C18.7541 20.717 19.0301 20.329 19.4381 20.261C19.4801 20.254 19.5211 20.251 19.5631 20.251C19.9301 20.251 20.2411 20.514 20.3021 20.877C20.5661 22.454 21.8031 23.69 23.3801 23.955C23.5881 23.99 23.8001 24.008 24.0091 24.008C24.7871 24.008 25.5361 23.767 26.1771 23.311C26.9931 22.729 27.5331 21.865 27.6991 20.878C27.7601 20.515 28.0711 20.252 28.4391 20.252C28.4801 20.252 28.5221 20.255 28.5641 20.262C28.9711 20.33 29.2471 20.718 29.1791 21.126C28.9471 22.509 28.1901 23.719 27.0481 24.533C26.1511 25.17 25.1011 25.508 24.0111 25.508Z" fill="#2F80ED"/>
</g>
<defs>
<clipPath id="clip0_2540_7080">
<rect width="24" height="24" fill="white" transform="translate(12 12)"/>
</clipPath>
</defs>
</svg>
