<svg width="16" height="16" viewBox="0 0 16 16" fill="none" xmlns="http://www.w3.org/2000/svg">
<path d="M13.3487 10.3253C12.9287 10.3153 12.4 10.2907 12.066 10.232C11.7047 10.168 11.27 10.044 10.964 9.94867C10.724 9.874 10.4627 9.94 10.2847 10.1173L8.80667 11.5867C7.78533 11.0487 6.96733 10.422 6.27467 9.72533C5.578 9.03267 4.95133 8.21467 4.41333 7.19333L5.88267 5.71467C6.06 5.53667 6.126 5.27533 6.05133 5.03533C5.95667 4.73 5.832 4.29533 5.76867 3.934C5.70933 3.6 5.68533 3.07133 5.67467 2.65133C5.666 2.288 5.37 2 5.00667 2H2.66667C2.37467 2 2 2.21867 2 2.66667C2 5.69267 3.22667 8.58267 5.31067 10.6893C7.41733 12.7733 10.3073 14 13.3333 14C13.7813 14 14 13.6253 14 13.3333V10.9933C14 10.63 13.712 10.334 13.3487 10.3253Z" fill="#2C3E50"/>
</svg>
