<svg width="16" height="16" viewBox="0 0 16 16" fill="none" xmlns="http://www.w3.org/2000/svg">
<path d="M7.99967 1.33301C4.31967 1.33301 1.33301 4.31967 1.33301 7.99967C1.33301 11.6797 4.31967 14.6663 7.99967 14.6663C11.6797 14.6663 14.6663 11.6797 14.6663 7.99967C14.6663 4.31967 11.6797 1.33301 7.99967 1.33301ZM6.19301 10.8597L3.79967 8.46634C3.73795 8.40462 3.68899 8.33135 3.65559 8.2507C3.62219 8.17006 3.60499 8.08363 3.60499 7.99634C3.60499 7.90905 3.62219 7.82262 3.65559 7.74198C3.68899 7.66134 3.73795 7.58806 3.79967 7.52634C3.8614 7.46462 3.93467 7.41566 4.01531 7.38226C4.09596 7.34885 4.18239 7.33166 4.26967 7.33166C4.35696 7.33166 4.44339 7.34885 4.52404 7.38226C4.60468 7.41566 4.67795 7.46462 4.73967 7.52634L6.66634 9.44634L11.253 4.85967C11.3777 4.73502 11.5467 4.66499 11.723 4.66499C11.8993 4.66499 12.0684 4.73502 12.193 4.85967C12.3177 4.98433 12.3877 5.15339 12.3877 5.32967C12.3877 5.50596 12.3177 5.67502 12.193 5.79967L7.13301 10.8597C7.07133 10.9215 6.99807 10.9705 6.91742 11.004C6.83678 11.0374 6.75032 11.0546 6.66301 11.0546C6.5757 11.0546 6.48924 11.0374 6.40859 11.004C6.32794 10.9705 6.25468 10.9215 6.19301 10.8597Z" fill="url(#paint0_linear_900_11122)"/>
<defs>
<linearGradient id="paint0_linear_900_11122" x1="1.33301" y1="1.33301" x2="16.8711" y2="4.80811" gradientUnits="userSpaceOnUse">
<stop stop-color="#2DCBD4"/>
<stop offset="1" stop-color="#2F80ED"/>
</linearGradient>
</defs>
</svg>
