<svg width="40" height="40" viewBox="0 0 40 40" fill="none" xmlns="http://www.w3.org/2000/svg">
<rect width="40" height="40" rx="8" fill="#E4F8F9"/>
<path d="M17.75 32C16.38 32 15.186 31.053 14.848 29.75H13.902C13.564 31.053 12.37 32 11 32C9.346 32 8 30.654 8 29C8 27.346 9.346 26 11 26C12.37 26 13.564 26.947 13.902 28.25H14.849C15.121 27.202 15.952 26.371 17 26.099V23.75H8.75C8.336 23.75 8 23.414 8 23C8 22.586 8.336 22.25 8.75 22.25H17V10.8C17 10.068 16.627 9.5 16.306 9.5H8.75C8.336 9.5 8 9.164 8 8.75C8 8.336 8.336 8 8.75 8H16.306C17.516 8 18.5 9.256 18.5 10.8V26.098C19.803 26.436 20.75 27.63 20.75 29C20.75 30.654 19.404 32 17.75 32ZM17.75 27.5C16.923 27.5 16.25 28.173 16.25 29C16.25 29.827 16.923 30.5 17.75 30.5C18.577 30.5 19.25 29.827 19.25 29C19.25 28.173 18.577 27.5 17.75 27.5ZM11 27.5C10.173 27.5 9.5 28.173 9.5 29C9.5 29.827 10.173 30.5 11 30.5C11.827 30.5 12.5 29.827 12.5 29C12.5 28.173 11.827 27.5 11 27.5Z" fill="#2F80ED"/>
<path d="M10.25 20.7499C9.836 20.7499 9.5 20.4139 9.5 19.9999V11.8179C9.5 11.4039 9.836 11.0679 10.25 11.0679C10.664 11.0679 11 11.4039 11 11.8179V19.9999C11 20.4139 10.664 20.7499 10.25 20.7499Z" fill="#2F80ED"/>
<path d="M14 20.7499C13.586 20.7499 13.25 20.4139 13.25 19.9999V11.8179C13.25 11.4039 13.586 11.0679 14 11.0679C14.414 11.0679 14.75 11.4039 14.75 11.8179V19.9999C14.75 20.4139 14.414 20.7499 14 20.7499Z" fill="#2F80ED"/>
<path d="M25.25 32.0002C23.596 32.0002 22.25 30.6542 22.25 29.0002C22.25 27.3462 23.596 26.0002 25.25 26.0002C26.62 26.0002 27.814 26.9472 28.152 28.2502H29.75C30.164 28.2502 30.5 27.9142 30.5 27.5002V21.5002H28.109C28.088 21.5012 28.054 21.5022 28.021 21.5022C26.53 21.5022 25.313 20.3292 25.251 18.8322V14.7512H22.251V26.0002C22.251 26.4142 21.915 26.7502 21.501 26.7502C21.087 26.7502 20.751 26.4142 20.751 26.0002V10.2502C20.751 9.84919 21.064 9.52119 21.464 9.50119C21.586 9.49519 21.707 9.49219 21.827 9.49219C24.251 9.49219 26.074 10.7662 27.249 13.2802C29.931 13.5332 32 15.7832 32 18.5002V27.5002C32 28.7412 30.991 29.7502 29.75 29.7502H28.152C27.814 31.0532 26.62 32.0002 25.25 32.0002ZM25.25 27.5002C24.423 27.5002 23.75 28.1732 23.75 29.0002C23.75 29.8272 24.423 30.5002 25.25 30.5002C26.077 30.5002 26.75 29.8272 26.75 29.0002C26.75 28.1732 26.077 27.5002 25.25 27.5002ZM26.75 18.8002C26.778 19.4552 27.354 20.0012 28.035 20.0012L28.081 20.0002H30.5V18.5002C30.5 16.4332 28.818 14.7512 26.751 14.7502H26.75V18.8002ZM25.545 13.2502C24.728 11.8482 23.664 11.1262 22.25 11.0092V13.2502H25.545Z" fill="#2F80ED"/>
</svg>