<svg width="16" height="16" viewBox="0 0 16 16" fill="none" xmlns="http://www.w3.org/2000/svg">
<path d="M12.6667 2H3.33333C2.59667 2 2 2.59667 2 3.33333V12.6667C2 13.4033 2.59667 14 3.33333 14H12.6667C13.4033 14 14 13.4033 14 12.6667V3.33333C14 2.59667 13.4033 2 12.6667 2ZM11.3667 6.34267C11.3667 6.4 11.3667 6.45667 11.3667 6.57133C11.3667 8.74267 9.70933 11.2573 6.68067 11.2573C5.76667 11.2573 4.90933 10.9713 4.16667 10.5147C4.28067 10.5147 4.45267 10.5147 4.56667 10.5147C5.30933 10.5147 6.05267 10.2287 6.624 9.82867C5.88133 9.82867 5.31 9.31467 5.08133 8.686C5.19533 8.686 5.31 8.74333 5.36733 8.74333C5.53867 8.74333 5.65333 8.74333 5.82467 8.686C5.082 8.51467 4.51067 7.886 4.51067 7.086C4.73933 7.2 4.968 7.25733 5.25333 7.31467C4.796 6.91467 4.51067 6.45733 4.51067 5.886C4.51067 5.6 4.568 5.31467 4.73933 5.086C5.53933 6.05733 6.73933 6.74333 8.11067 6.8C8.11067 6.686 8.05333 6.57133 8.05333 6.4C8.05333 5.486 8.796 4.74267 9.71067 4.74267C10.168 4.74267 10.6247 4.914 10.9107 5.25667C11.3107 5.19933 11.6533 5.028 11.9393 4.85667C11.8253 5.25667 11.5393 5.54267 11.1967 5.77067C11.5393 5.71333 11.8253 5.65667 12.168 5.48467C11.938 5.82867 11.6527 6.114 11.3667 6.34267Z" fill="#9DACB4"/>
</svg>
