<svg width="44" height="44" viewBox="0 0 44 44" fill="none" xmlns="http://www.w3.org/2000/svg">
<path d="M2 22C2 10.9543 10.9543 2 22 2V2C33.0457 2 42 10.9543 42 22V22C42 33.0457 33.0457 42 22 42V42C10.9543 42 2 33.0457 2 22V22Z" fill="#F0F0FE"/>
<path d="M14.4867 18.794V17.2727H21.6543V18.794H18.9824V26H17.1586V18.794H14.4867ZM27.5691 19.7827C27.535 19.4389 27.3887 19.1719 27.1301 18.9815C26.8716 18.7912 26.5208 18.696 26.0776 18.696C25.7765 18.696 25.5222 18.7386 25.3148 18.8239C25.1074 18.9062 24.9483 19.0213 24.8375 19.169C24.7296 19.3168 24.6756 19.4844 24.6756 19.6719C24.6699 19.8281 24.7026 19.9645 24.7736 20.081C24.8475 20.1974 24.9483 20.2983 25.0762 20.3835C25.204 20.4659 25.3517 20.5384 25.5194 20.6009C25.687 20.6605 25.8659 20.7116 26.0563 20.7543L26.8404 20.9418C27.2211 21.027 27.5705 21.1406 27.8887 21.2827C28.2069 21.4247 28.4824 21.5994 28.7154 21.8068C28.9483 22.0142 29.1287 22.2585 29.2566 22.5398C29.3873 22.821 29.454 23.1435 29.4569 23.5071C29.454 24.0412 29.3176 24.5043 29.0478 24.8963C28.7807 25.2855 28.3944 25.5881 27.8887 25.804C27.3858 26.017 26.7793 26.1236 26.0691 26.1236C25.3645 26.1236 24.7509 26.0156 24.2282 25.7997C23.7083 25.5838 23.302 25.2642 23.0094 24.8409C22.7196 24.4148 22.5676 23.8878 22.5534 23.2599H24.339C24.3588 23.5526 24.4426 23.7969 24.5904 23.9929C24.7409 24.1861 24.9412 24.3324 25.1912 24.4318C25.4441 24.5284 25.7296 24.5767 26.0478 24.5767C26.3603 24.5767 26.6316 24.5312 26.8617 24.4403C27.0946 24.3494 27.275 24.223 27.4029 24.0611C27.5307 23.8991 27.5946 23.7131 27.5946 23.5028C27.5946 23.3068 27.5364 23.142 27.4199 23.0085C27.3063 22.875 27.1387 22.7614 26.9171 22.6676C26.6983 22.5739 26.4299 22.4886 26.1117 22.4119L25.1614 22.1733C24.4256 21.9943 23.8446 21.7145 23.4185 21.3338C22.9924 20.9531 22.7807 20.4403 22.7836 19.7955C22.7807 19.267 22.9213 18.8054 23.2054 18.4105C23.4924 18.0156 23.8858 17.7074 24.3858 17.4858C24.8858 17.2642 25.454 17.1534 26.0904 17.1534C26.7381 17.1534 27.3034 17.2642 27.7864 17.4858C28.2722 17.7074 28.65 18.0156 28.9199 18.4105C29.1898 18.8054 29.329 19.2628 29.3375 19.7827H27.5691Z" fill="#6464BC"/>
<path d="M22 40C12.0589 40 4 31.9411 4 22H0C0 34.1503 9.84974 44 22 44V40ZM40 22C40 31.9411 31.9411 40 22 40V44C34.1503 44 44 34.1503 44 22H40ZM22 4C31.9411 4 40 12.0589 40 22H44C44 9.84974 34.1503 0 22 0V4ZM22 0C9.84974 0 0 9.84974 0 22H4C4 12.0589 12.0589 4 22 4V0Z" fill="white"/>
</svg>
