<svg width="40" height="40" viewBox="0 0 40 40" fill="none" xmlns="http://www.w3.org/2000/svg">
<rect width="40" height="40" rx="8" fill="#E4F8F9"/>
<path d="M26.75 27.5C25.79 27.5 24.942 26.885 24.629 26H15.371C15.057 26.885 14.209 27.5 13.25 27.5C12.291 27.5 11.442 26.885 11.129 26H10.25C9.009 26 8 24.991 8 23.75V14.75C8 13.509 9.009 12.5 10.25 12.5H23.658C25.382 12.5 26.877 13.668 27.296 15.34L28.144 18.731C28.552 18.931 28.913 19.103 29.231 19.254C31.246 20.216 32 20.576 32 22.25V23.75C32 24.991 30.991 26 29.75 26H28.871C28.558 26.885 27.71 27.5 26.75 27.5ZM26.75 24.5C26.336 24.5 26 24.836 26 25.25C26 25.664 26.336 26 26.75 26C27.164 26 27.5 25.664 27.5 25.25C27.5 24.836 27.164 24.5 26.75 24.5ZM13.25 24.5C12.836 24.5 12.5 24.836 12.5 25.25C12.5 25.664 12.836 26 13.25 26C13.664 26 14 25.664 14 25.25C14 24.836 13.664 24.5 13.25 24.5ZM29.75 24.5C30.164 24.5 30.5 24.164 30.5 23.75V22.25C30.5 21.522 30.5 21.522 28.584 20.608C28.222 20.435 27.803 20.235 27.325 20H22.25V24.5H24.629C24.943 23.615 25.791 23 26.75 23C27.709 23 28.558 23.615 28.871 24.5H29.75ZM20.75 24.5V14H10.25C9.836 14 9.5 14.336 9.5 14.75V23.75C9.5 24.164 9.836 24.5 10.25 24.5H11.129C11.442 23.615 12.29 23 13.25 23C14.21 23 15.058 23.615 15.371 24.5H20.75ZM26.54 18.5L25.841 15.704C25.59 14.701 24.692 14 23.658 14H22.25V18.5H26.54Z" fill="#2F80ED"/>
<path d="M12.25 20C11.561 20 11 19.439 11 18.75V16.75C11 16.061 11.561 15.5 12.25 15.5H18C18.689 15.5 19.25 16.061 19.25 16.75V18.75C19.25 19.439 18.689 20 18 20H12.25ZM17.75 18.5V17H12.5V18.5H17.75Z" fill="#2F80ED"/>
</svg>

